<svg xmlns="http://www.w3.org/2000/svg" viewBox="0 0 127.14 96.36" fill="#5865F2" width="28" height="28">
  <path d="M107.7 8.07A105.15 105.15 0 0 0 81.47.5a72.06 72.06 0 0 0-3.36 6.83 97.68 97.68 0 0 0-29.03 0 72.37 72.37 0 0 0-3.36-6.83 105.89 105.89 0 0 0-26.24 7.57C2.4 32.24-1.6 56.6.54 80.67A105.73 105.73 0 0 0 32.71 96.36a77.7 77.7 0 0 0 6.89-11.11 68.42 68.42 0 0 1-10.85-5.2c.91-.66 1.8-1.35 2.64-2.05a75.57 75.57 0 0 0 65.34 0c.84.7 1.73 1.39 2.64 2.05a68.68 68.68 0 0 1-10.87 5.2 77.46 77.46 0 0 0 6.89 11.11 105.25 105.25 0 0 0 32.17-15.69c2.52-28.93-4.2-53.28-19.87-72.5zM42.45 65.69c-5.01 0-9.09-4.61-9.09-10.27 0-5.67 4.05-10.27 9.09-10.27s9.11 4.61 9.09 10.27c0 5.67-4.05 10.27-9.09 10.27zm42.24 0c-5.01 0-9.09-4.61-9.09-10.27 0-5.67 4.05-10.27 9.09-10.27s9.09 4.61 9.09 10.27c0 5.67-4.05 10.27-9.09 10.27z"/>
</svg>

